<mxfile host="app.diagrams.net" modified="2023-09-05T16:45:05.997Z" agent="Mozilla/5.0 (Windows NT 10.0; Win64; x64) AppleWebKit/537.36 (KHTML, like Gecko) Chrome/116.0.0.0 Safari/537.36" etag="nuv4hLglwzRJch-a290v" version="21.7.2" type="device">
  <diagram name="Seite-1" id="TPHRvBTz2vNjF6nL9rwo">
    <mxGraphModel dx="1372" dy="798" grid="1" gridSize="10" guides="1" tooltips="1" connect="1" arrows="1" fold="1" page="1" pageScale="1" pageWidth="1654" pageHeight="1169" math="0" shadow="0">
      <root>
        <mxCell id="0" />
        <mxCell id="1" parent="0" />
        <mxCell id="3UMcLyC-Vb2wfdJZZ5CZ-24" style="edgeStyle=orthogonalEdgeStyle;rounded=0;orthogonalLoop=1;jettySize=auto;html=1;entryX=0;entryY=0.5;entryDx=0;entryDy=0;" parent="1" source="3UMcLyC-Vb2wfdJZZ5CZ-1" target="3UMcLyC-Vb2wfdJZZ5CZ-22" edge="1">
          <mxGeometry relative="1" as="geometry" />
        </mxCell>
        <mxCell id="3UMcLyC-Vb2wfdJZZ5CZ-1" value="&lt;b&gt;Inverse Filterung&lt;/b&gt;" style="rounded=0;whiteSpace=wrap;html=1;" parent="1" vertex="1">
          <mxGeometry x="410" y="250" width="150" height="40" as="geometry" />
        </mxCell>
        <mxCell id="3UMcLyC-Vb2wfdJZZ5CZ-2" value="&lt;font style=&quot;font-size: 11px;&quot;&gt;Separierbarkeit Kernel&lt;/font&gt;" style="rounded=0;whiteSpace=wrap;html=1;fillColor=#d5e8d4;strokeColor=#82b366;" parent="1" vertex="1">
          <mxGeometry x="210" y="390" width="140" height="40" as="geometry" />
        </mxCell>
        <mxCell id="3UMcLyC-Vb2wfdJZZ5CZ-14" style="edgeStyle=orthogonalEdgeStyle;rounded=0;orthogonalLoop=1;jettySize=auto;html=1;exitX=1;exitY=0.5;exitDx=0;exitDy=0;" parent="1" source="3UMcLyC-Vb2wfdJZZ5CZ-7" target="3UMcLyC-Vb2wfdJZZ5CZ-1" edge="1">
          <mxGeometry relative="1" as="geometry" />
        </mxCell>
        <mxCell id="3UMcLyC-Vb2wfdJZZ5CZ-7" value="Degradation" style="rounded=0;whiteSpace=wrap;html=1;fontStyle=1;fillColor=#d5e8d4;strokeColor=#82b366;" parent="1" vertex="1">
          <mxGeometry x="210" y="250" width="140" height="40" as="geometry" />
        </mxCell>
        <mxCell id="3UMcLyC-Vb2wfdJZZ5CZ-8" value="&lt;font style=&quot;&quot;&gt;&lt;font style=&quot;font-size: 11px;&quot;&gt;Zyklische Faltung&lt;/font&gt;&lt;br&gt;&lt;br&gt;&lt;span style=&quot;font-size: 10px;&quot;&gt;diskret o--o periodisch&lt;/span&gt;&lt;br&gt;&lt;span style=&quot;font-size: 10px;&quot;&gt;relation zu nyquist krti.&lt;/span&gt;&lt;br&gt;&lt;/font&gt;" style="rounded=0;whiteSpace=wrap;html=1;" parent="1" vertex="1">
          <mxGeometry x="410" y="390" width="150" height="80" as="geometry" />
        </mxCell>
        <mxCell id="3UMcLyC-Vb2wfdJZZ5CZ-11" value="&lt;font style=&quot;font-size: 11px;&quot;&gt;Simulation Degradation&lt;br&gt;&lt;/font&gt;" style="rounded=0;whiteSpace=wrap;html=1;fillColor=#d5e8d4;strokeColor=#82b366;" parent="1" vertex="1">
          <mxGeometry x="210" y="330" width="140" height="40" as="geometry" />
        </mxCell>
        <mxCell id="3UMcLyC-Vb2wfdJZZ5CZ-16" value="" style="endArrow=none;html=1;rounded=0;exitX=0.5;exitY=0;exitDx=0;exitDy=0;entryX=0.5;entryY=1;entryDx=0;entryDy=0;" parent="1" source="3UMcLyC-Vb2wfdJZZ5CZ-11" target="3UMcLyC-Vb2wfdJZZ5CZ-7" edge="1">
          <mxGeometry width="50" height="50" relative="1" as="geometry">
            <mxPoint x="490" y="340" as="sourcePoint" />
            <mxPoint x="490" y="315" as="targetPoint" />
          </mxGeometry>
        </mxCell>
        <mxCell id="3UMcLyC-Vb2wfdJZZ5CZ-18" value="" style="endArrow=none;html=1;rounded=0;exitX=0.5;exitY=0;exitDx=0;exitDy=0;entryX=0.5;entryY=1;entryDx=0;entryDy=0;" parent="1" source="3UMcLyC-Vb2wfdJZZ5CZ-2" target="3UMcLyC-Vb2wfdJZZ5CZ-11" edge="1">
          <mxGeometry width="50" height="50" relative="1" as="geometry">
            <mxPoint x="300" y="330" as="sourcePoint" />
            <mxPoint x="300" y="300" as="targetPoint" />
          </mxGeometry>
        </mxCell>
        <mxCell id="3UMcLyC-Vb2wfdJZZ5CZ-20" value="&lt;font style=&quot;font-size: 11px;&quot;&gt;Addieren von Rauschen&lt;br&gt;&lt;/font&gt;" style="rounded=0;whiteSpace=wrap;html=1;" parent="1" vertex="1">
          <mxGeometry x="410" y="590" width="150" height="30" as="geometry" />
        </mxCell>
        <mxCell id="3UMcLyC-Vb2wfdJZZ5CZ-49" style="edgeStyle=orthogonalEdgeStyle;rounded=0;orthogonalLoop=1;jettySize=auto;html=1;entryX=0;entryY=0.5;entryDx=0;entryDy=0;" parent="1" source="3UMcLyC-Vb2wfdJZZ5CZ-22" target="3UMcLyC-Vb2wfdJZZ5CZ-48" edge="1">
          <mxGeometry relative="1" as="geometry" />
        </mxCell>
        <mxCell id="3UMcLyC-Vb2wfdJZZ5CZ-22" value="&lt;b&gt;Wiener-Filter&lt;/b&gt;" style="rounded=0;whiteSpace=wrap;html=1;" parent="1" vertex="1">
          <mxGeometry x="620" y="250" width="130" height="40" as="geometry" />
        </mxCell>
        <mxCell id="3UMcLyC-Vb2wfdJZZ5CZ-23" value="&lt;font style=&quot;font-size: 11px;&quot;&gt;Setup als &lt;i&gt;statistisches&amp;nbsp;&lt;/i&gt;(LS) Minimierungsproblem&lt;br&gt;&lt;/font&gt;" style="rounded=0;whiteSpace=wrap;html=1;" parent="1" vertex="1">
          <mxGeometry x="620" y="330" width="130" height="60" as="geometry" />
        </mxCell>
        <mxCell id="3UMcLyC-Vb2wfdJZZ5CZ-25" value="&lt;font style=&quot;font-size: 11px;&quot;&gt;Modellierung Degradation in RealitÃ¤t&lt;br&gt;&lt;/font&gt;" style="rounded=0;whiteSpace=wrap;html=1;" parent="1" vertex="1">
          <mxGeometry x="410" y="330" width="150" height="40" as="geometry" />
        </mxCell>
        <mxCell id="3UMcLyC-Vb2wfdJZZ5CZ-27" value="" style="endArrow=none;html=1;rounded=0;exitX=0.5;exitY=0;exitDx=0;exitDy=0;entryX=0.5;entryY=1;entryDx=0;entryDy=0;" parent="1" source="3UMcLyC-Vb2wfdJZZ5CZ-25" target="3UMcLyC-Vb2wfdJZZ5CZ-1" edge="1">
          <mxGeometry width="50" height="50" relative="1" as="geometry">
            <mxPoint x="495" y="440" as="sourcePoint" />
            <mxPoint x="495" y="410" as="targetPoint" />
          </mxGeometry>
        </mxCell>
        <mxCell id="3UMcLyC-Vb2wfdJZZ5CZ-28" value="" style="endArrow=none;html=1;rounded=0;exitX=0.5;exitY=0;exitDx=0;exitDy=0;entryX=0.5;entryY=1;entryDx=0;entryDy=0;" parent="1" source="3UMcLyC-Vb2wfdJZZ5CZ-8" target="3UMcLyC-Vb2wfdJZZ5CZ-25" edge="1">
          <mxGeometry width="50" height="50" relative="1" as="geometry">
            <mxPoint x="505" y="450" as="sourcePoint" />
            <mxPoint x="505" y="420" as="targetPoint" />
          </mxGeometry>
        </mxCell>
        <mxCell id="3UMcLyC-Vb2wfdJZZ5CZ-29" value="&lt;font style=&quot;font-size: 11px;&quot;&gt;Derivation&lt;br&gt;&lt;/font&gt;" style="rounded=0;whiteSpace=wrap;html=1;" parent="1" vertex="1">
          <mxGeometry x="620" y="420" width="130" height="40" as="geometry" />
        </mxCell>
        <mxCell id="3UMcLyC-Vb2wfdJZZ5CZ-30" value="&lt;font style=&quot;&quot;&gt;&lt;span style=&quot;font-size: 11px;&quot;&gt;Wirtinger Derivatives&lt;/span&gt;&lt;br&gt;for proving dJ/dW[WW*]=W*&amp;nbsp;&lt;br&gt;&lt;/font&gt;" style="rounded=0;whiteSpace=wrap;html=1;fillColor=#f5f5f5;strokeColor=#8F8F8F;fontColor=#A1A1A1;" parent="1" vertex="1">
          <mxGeometry x="820" y="460" width="140" height="70" as="geometry" />
        </mxCell>
        <mxCell id="3UMcLyC-Vb2wfdJZZ5CZ-31" value="" style="endArrow=none;html=1;rounded=0;exitX=0.5;exitY=0;exitDx=0;exitDy=0;entryX=0.5;entryY=1;entryDx=0;entryDy=0;" parent="1" source="3UMcLyC-Vb2wfdJZZ5CZ-23" target="3UMcLyC-Vb2wfdJZZ5CZ-22" edge="1">
          <mxGeometry width="50" height="50" relative="1" as="geometry">
            <mxPoint x="495" y="340" as="sourcePoint" />
            <mxPoint x="495" y="300" as="targetPoint" />
          </mxGeometry>
        </mxCell>
        <mxCell id="3UMcLyC-Vb2wfdJZZ5CZ-32" value="" style="endArrow=none;html=1;rounded=0;exitX=0.5;exitY=0;exitDx=0;exitDy=0;entryX=0.5;entryY=1;entryDx=0;entryDy=0;" parent="1" source="3UMcLyC-Vb2wfdJZZ5CZ-29" target="3UMcLyC-Vb2wfdJZZ5CZ-23" edge="1">
          <mxGeometry width="50" height="50" relative="1" as="geometry">
            <mxPoint x="695" y="340" as="sourcePoint" />
            <mxPoint x="695" y="300" as="targetPoint" />
          </mxGeometry>
        </mxCell>
        <mxCell id="3UMcLyC-Vb2wfdJZZ5CZ-33" value="&lt;font style=&quot;font-size: 11px;&quot;&gt;&lt;span style=&quot;font-size: 11px;&quot;&gt;Nod to signal processing&lt;br&gt;&lt;/span&gt;&lt;br&gt;vector interpretation&lt;br&gt;&lt;/font&gt;" style="rounded=0;whiteSpace=wrap;html=1;fillColor=#f5f5f5;strokeColor=#8F8F8F;fontColor=#A1A1A1;" parent="1" vertex="1">
          <mxGeometry x="820" y="550" width="140" height="70" as="geometry" />
        </mxCell>
        <mxCell id="3UMcLyC-Vb2wfdJZZ5CZ-34" value="" style="endArrow=none;html=1;rounded=0;exitX=1;exitY=0.5;exitDx=0;exitDy=0;entryX=0;entryY=0.5;entryDx=0;entryDy=0;strokeColor=#8F8F8F;" parent="1" source="3UMcLyC-Vb2wfdJZZ5CZ-29" target="3UMcLyC-Vb2wfdJZZ5CZ-30" edge="1">
          <mxGeometry width="50" height="50" relative="1" as="geometry">
            <mxPoint x="695" y="340" as="sourcePoint" />
            <mxPoint x="695" y="300" as="targetPoint" />
          </mxGeometry>
        </mxCell>
        <mxCell id="3UMcLyC-Vb2wfdJZZ5CZ-35" value="" style="endArrow=none;html=1;rounded=0;exitX=1;exitY=0.5;exitDx=0;exitDy=0;entryX=0;entryY=0.5;entryDx=0;entryDy=0;strokeColor=#8F8F8F;" parent="1" source="3UMcLyC-Vb2wfdJZZ5CZ-29" target="3UMcLyC-Vb2wfdJZZ5CZ-33" edge="1">
          <mxGeometry width="50" height="50" relative="1" as="geometry">
            <mxPoint x="760" y="420" as="sourcePoint" />
            <mxPoint x="910" y="375" as="targetPoint" />
          </mxGeometry>
        </mxCell>
        <mxCell id="3UMcLyC-Vb2wfdJZZ5CZ-37" value="" style="endArrow=none;html=1;rounded=0;exitX=1;exitY=0.5;exitDx=0;exitDy=0;entryX=0;entryY=0.5;entryDx=0;entryDy=0;strokeColor=#8F8F8F;" parent="1" source="3UMcLyC-Vb2wfdJZZ5CZ-29" target="3UMcLyC-Vb2wfdJZZ5CZ-38" edge="1">
          <mxGeometry width="50" height="50" relative="1" as="geometry">
            <mxPoint x="760" y="420" as="sourcePoint" />
            <mxPoint x="900" y="545" as="targetPoint" />
          </mxGeometry>
        </mxCell>
        <mxCell id="3UMcLyC-Vb2wfdJZZ5CZ-38" value="&lt;font style=&quot;font-size: 11px;&quot;&gt;F nicht bekannt&lt;br&gt;&lt;br&gt;=&amp;gt; K = Sn/Sf =1/SNR&lt;br&gt;&lt;/font&gt;" style="rounded=0;whiteSpace=wrap;html=1;fillColor=#f5f5f5;strokeColor=#8F8F8F;fontColor=#A1A1A1;" parent="1" vertex="1">
          <mxGeometry x="820" y="640" width="140" height="70" as="geometry" />
        </mxCell>
        <mxCell id="3UMcLyC-Vb2wfdJZZ5CZ-39" value="&lt;font style=&quot;font-size: 11px;&quot;&gt;Inverse Filterung direkt &lt;br&gt;aus Optimierungsproblem&lt;br&gt;&lt;/font&gt;" style="rounded=0;whiteSpace=wrap;html=1;fillColor=#f5f5f5;strokeColor=#8F8F8F;fontColor=#A1A1A1;" parent="1" vertex="1">
          <mxGeometry x="820" y="730" width="140" height="70" as="geometry" />
        </mxCell>
        <mxCell id="3UMcLyC-Vb2wfdJZZ5CZ-40" value="" style="endArrow=none;html=1;rounded=0;exitX=1;exitY=0.5;exitDx=0;exitDy=0;strokeColor=#8F8F8F;entryX=0;entryY=0.5;entryDx=0;entryDy=0;" parent="1" source="3UMcLyC-Vb2wfdJZZ5CZ-29" target="3UMcLyC-Vb2wfdJZZ5CZ-39" edge="1">
          <mxGeometry width="50" height="50" relative="1" as="geometry">
            <mxPoint x="760" y="420" as="sourcePoint" />
            <mxPoint x="900" y="629" as="targetPoint" />
          </mxGeometry>
        </mxCell>
        <mxCell id="3UMcLyC-Vb2wfdJZZ5CZ-41" value="&lt;font style=&quot;&quot;&gt;&lt;span style=&quot;font-size: 11px;&quot;&gt;Resultat + ErklÃ¤rung&lt;br&gt;naive Implementation&lt;br&gt;&lt;/span&gt;korrekte Implementation&lt;br&gt;&lt;/font&gt;" style="rounded=0;whiteSpace=wrap;html=1;fillColor=#f5f5f5;strokeColor=#666666;fontColor=#333333;" parent="1" vertex="1">
          <mxGeometry x="415" y="497" width="140" height="63" as="geometry" />
        </mxCell>
        <mxCell id="3UMcLyC-Vb2wfdJZZ5CZ-42" value="" style="endArrow=none;html=1;rounded=0;exitX=0.5;exitY=0;exitDx=0;exitDy=0;entryX=0.5;entryY=1;entryDx=0;entryDy=0;" parent="1" source="3UMcLyC-Vb2wfdJZZ5CZ-41" target="3UMcLyC-Vb2wfdJZZ5CZ-8" edge="1">
          <mxGeometry width="50" height="50" relative="1" as="geometry">
            <mxPoint x="495" y="400" as="sourcePoint" />
            <mxPoint x="495" y="380" as="targetPoint" />
          </mxGeometry>
        </mxCell>
        <mxCell id="3UMcLyC-Vb2wfdJZZ5CZ-43" value="" style="endArrow=none;html=1;rounded=0;exitX=0.5;exitY=0;exitDx=0;exitDy=0;entryX=0.5;entryY=1;entryDx=0;entryDy=0;" parent="1" source="3UMcLyC-Vb2wfdJZZ5CZ-20" target="3UMcLyC-Vb2wfdJZZ5CZ-41" edge="1">
          <mxGeometry width="50" height="50" relative="1" as="geometry">
            <mxPoint x="495" y="507" as="sourcePoint" />
            <mxPoint x="495" y="480" as="targetPoint" />
          </mxGeometry>
        </mxCell>
        <mxCell id="3UMcLyC-Vb2wfdJZZ5CZ-44" value="&lt;span style=&quot;font-size: 11px;&quot;&gt;Resultat&lt;/span&gt;&lt;br&gt;&lt;br&gt;&lt;font style=&quot;font-size: 10px;&quot;&gt;Motivation Wiener-Filter&lt;/font&gt;" style="rounded=0;whiteSpace=wrap;html=1;fillColor=#f5f5f5;strokeColor=#666666;fontColor=#333333;" parent="1" vertex="1">
          <mxGeometry x="415" y="640" width="140" height="60" as="geometry" />
        </mxCell>
        <mxCell id="3UMcLyC-Vb2wfdJZZ5CZ-45" value="" style="endArrow=none;html=1;rounded=0;exitX=0.5;exitY=1;exitDx=0;exitDy=0;entryX=0.5;entryY=0;entryDx=0;entryDy=0;" parent="1" source="3UMcLyC-Vb2wfdJZZ5CZ-20" target="3UMcLyC-Vb2wfdJZZ5CZ-44" edge="1">
          <mxGeometry width="50" height="50" relative="1" as="geometry">
            <mxPoint x="495" y="600" as="sourcePoint" />
            <mxPoint x="495" y="577" as="targetPoint" />
          </mxGeometry>
        </mxCell>
        <mxCell id="3UMcLyC-Vb2wfdJZZ5CZ-46" value="&lt;font style=&quot;&quot;&gt;&lt;span style=&quot;font-size: 11px;&quot;&gt;Resultat&lt;/span&gt;&lt;br&gt;&lt;/font&gt;" style="rounded=0;whiteSpace=wrap;html=1;fillColor=#f5f5f5;strokeColor=#666666;fontColor=#333333;" parent="1" vertex="1">
          <mxGeometry x="615" y="497" width="140" height="63" as="geometry" />
        </mxCell>
        <mxCell id="3UMcLyC-Vb2wfdJZZ5CZ-47" value="" style="endArrow=none;html=1;rounded=0;exitX=0.5;exitY=0;exitDx=0;exitDy=0;entryX=0.5;entryY=1;entryDx=0;entryDy=0;" parent="1" source="3UMcLyC-Vb2wfdJZZ5CZ-46" target="3UMcLyC-Vb2wfdJZZ5CZ-29" edge="1">
          <mxGeometry width="50" height="50" relative="1" as="geometry">
            <mxPoint x="695" y="400" as="sourcePoint" />
            <mxPoint x="695" y="380" as="targetPoint" />
          </mxGeometry>
        </mxCell>
        <mxCell id="3UMcLyC-Vb2wfdJZZ5CZ-48" value="&lt;b&gt;Constrained LS Filter&lt;br&gt;&lt;/b&gt;" style="rounded=0;whiteSpace=wrap;html=1;" parent="1" vertex="1">
          <mxGeometry x="820" y="250" width="140" height="40" as="geometry" />
        </mxCell>
        <mxCell id="3UMcLyC-Vb2wfdJZZ5CZ-50" value="&lt;font style=&quot;font-size: 11px;&quot;&gt;Setup als &lt;i&gt;anderes &lt;/i&gt;Optimierungsproblem&lt;br&gt;&lt;/font&gt;" style="rounded=0;whiteSpace=wrap;html=1;" parent="1" vertex="1">
          <mxGeometry x="820" y="330" width="140" height="40" as="geometry" />
        </mxCell>
        <mxCell id="3UMcLyC-Vb2wfdJZZ5CZ-51" value="" style="endArrow=none;html=1;rounded=0;exitX=0.5;exitY=0;exitDx=0;exitDy=0;entryX=0.5;entryY=1;entryDx=0;entryDy=0;" parent="1" source="3UMcLyC-Vb2wfdJZZ5CZ-50" target="3UMcLyC-Vb2wfdJZZ5CZ-48" edge="1">
          <mxGeometry width="50" height="50" relative="1" as="geometry">
            <mxPoint x="695" y="340" as="sourcePoint" />
            <mxPoint x="695" y="300" as="targetPoint" />
          </mxGeometry>
        </mxCell>
        <mxCell id="3UMcLyC-Vb2wfdJZZ5CZ-52" value="&lt;font style=&quot;&quot;&gt;&lt;span style=&quot;font-size: 11px;&quot;&gt;optimal fÃ¼r spezifisches Bild&lt;/span&gt;&lt;br&gt;&lt;/font&gt;" style="rounded=0;whiteSpace=wrap;html=1;fillColor=#f5f5f5;strokeColor=#666666;fontColor=#333333;" parent="1" vertex="1">
          <mxGeometry x="1007" y="330" width="153" height="40" as="geometry" />
        </mxCell>
        <mxCell id="3UMcLyC-Vb2wfdJZZ5CZ-53" value="" style="endArrow=none;html=1;rounded=0;exitX=1;exitY=0.5;exitDx=0;exitDy=0;entryX=0;entryY=0.5;entryDx=0;entryDy=0;strokeColor=#8F8F8F;" parent="1" source="3UMcLyC-Vb2wfdJZZ5CZ-50" target="3UMcLyC-Vb2wfdJZZ5CZ-52" edge="1">
          <mxGeometry width="50" height="50" relative="1" as="geometry">
            <mxPoint x="760" y="420" as="sourcePoint" />
            <mxPoint x="830" y="435" as="targetPoint" />
          </mxGeometry>
        </mxCell>
        <mxCell id="3UMcLyC-Vb2wfdJZZ5CZ-55" value="&lt;font style=&quot;&quot;&gt;&lt;span style=&quot;font-size: 11px;&quot;&gt;Resultat&lt;/span&gt;&lt;br&gt;&lt;/font&gt;" style="rounded=0;whiteSpace=wrap;html=1;fillColor=#f5f5f5;strokeColor=#666666;fontColor=#333333;" parent="1" vertex="1">
          <mxGeometry x="825" y="390" width="130" height="40" as="geometry" />
        </mxCell>
        <mxCell id="3UMcLyC-Vb2wfdJZZ5CZ-56" value="" style="endArrow=none;html=1;rounded=0;exitX=0.5;exitY=0;exitDx=0;exitDy=0;entryX=0.5;entryY=1;entryDx=0;entryDy=0;" parent="1" source="3UMcLyC-Vb2wfdJZZ5CZ-55" target="3UMcLyC-Vb2wfdJZZ5CZ-50" edge="1">
          <mxGeometry width="50" height="50" relative="1" as="geometry">
            <mxPoint x="900" y="340" as="sourcePoint" />
            <mxPoint x="900" y="300" as="targetPoint" />
          </mxGeometry>
        </mxCell>
        <mxCell id="3UMcLyC-Vb2wfdJZZ5CZ-57" value="&lt;font style=&quot;&quot;&gt;&lt;span style=&quot;font-size: 11px;&quot;&gt;circConv.py&lt;/span&gt;&lt;br&gt;&lt;/font&gt;" style="rounded=0;whiteSpace=wrap;html=1;fillColor=#f5f5f5;strokeColor=#666666;fontColor=#333333;" parent="1" vertex="1">
          <mxGeometry x="250" y="513.5" width="130" height="30" as="geometry" />
        </mxCell>
        <mxCell id="3UMcLyC-Vb2wfdJZZ5CZ-58" value="" style="endArrow=none;html=1;rounded=0;exitX=1;exitY=0.5;exitDx=0;exitDy=0;entryX=0;entryY=0.5;entryDx=0;entryDy=0;" parent="1" source="3UMcLyC-Vb2wfdJZZ5CZ-57" target="3UMcLyC-Vb2wfdJZZ5CZ-41" edge="1">
          <mxGeometry width="50" height="50" relative="1" as="geometry">
            <mxPoint x="495" y="400" as="sourcePoint" />
            <mxPoint x="495" y="380" as="targetPoint" />
          </mxGeometry>
        </mxCell>
        <mxCell id="3UMcLyC-Vb2wfdJZZ5CZ-59" value="&lt;font style=&quot;&quot;&gt;&lt;span style=&quot;font-size: 11px;&quot;&gt;convolution2D.py&lt;/span&gt;&lt;br&gt;&lt;/font&gt;" style="rounded=0;whiteSpace=wrap;html=1;fillColor=#f5f5f5;strokeColor=#666666;fontColor=#333333;" parent="1" vertex="1">
          <mxGeometry x="215" y="450" width="130" height="30" as="geometry" />
        </mxCell>
        <mxCell id="3UMcLyC-Vb2wfdJZZ5CZ-60" value="" style="endArrow=none;html=1;rounded=0;exitX=0.5;exitY=1;exitDx=0;exitDy=0;entryX=0.5;entryY=0;entryDx=0;entryDy=0;" parent="1" source="3UMcLyC-Vb2wfdJZZ5CZ-2" target="3UMcLyC-Vb2wfdJZZ5CZ-59" edge="1">
          <mxGeometry width="50" height="50" relative="1" as="geometry">
            <mxPoint x="290" y="400" as="sourcePoint" />
            <mxPoint x="290" y="380" as="targetPoint" />
          </mxGeometry>
        </mxCell>
        <mxCell id="pZOJig9XmUWYfm2fHPo_-1" value="&lt;font style=&quot;font-size: 11px;&quot;&gt;#Multiplikationen&lt;br&gt;&lt;/font&gt;" style="rounded=0;whiteSpace=wrap;html=1;fillColor=#d5e8d4;strokeColor=#82b366;" vertex="1" parent="1">
          <mxGeometry x="40" y="395" width="120" height="30" as="geometry" />
        </mxCell>
        <mxCell id="pZOJig9XmUWYfm2fHPo_-2" value="" style="endArrow=none;html=1;rounded=0;exitX=1;exitY=0.5;exitDx=0;exitDy=0;entryX=0;entryY=0.5;entryDx=0;entryDy=0;strokeColor=#8F8F8F;" edge="1" parent="1" source="pZOJig9XmUWYfm2fHPo_-1" target="3UMcLyC-Vb2wfdJZZ5CZ-2">
          <mxGeometry width="50" height="50" relative="1" as="geometry">
            <mxPoint x="760" y="450" as="sourcePoint" />
            <mxPoint x="830" y="505" as="targetPoint" />
          </mxGeometry>
        </mxCell>
      </root>
    </mxGraphModel>
  </diagram>
</mxfile>
